<svg width="173" height="16" viewBox="0 0 173 16" fill="none" xmlns="http://www.w3.org/2000/svg">
<path d="M9.1255 10.8775V9.46523C9.1255 9.46523 9.05825 4.72304 4.9454 4.58299C4.9454 4.58299 4.74007 4.56054 4.74007 4.76255V6.04371C4.74007 6.04371 4.31686 10.9969 8.66284 11.3237C8.66284 11.3237 9.1255 11.4188 9.1255 10.8775Z" fill="#452C0E"></path>
<path d="M8.45538 10.8775V9.46523C8.45538 9.46523 8.52263 4.72304 12.6355 4.58299C12.6355 4.58299 12.8408 4.56054 12.8408 4.76255V6.04371C12.8408 6.04371 13.264 10.9969 8.91805 11.3237C8.91805 11.3237 8.45538 11.4188 8.45538 10.8775Z" fill="#452C0E"></path>
<path d="M13.0117 10.8775V9.46523C13.0117 9.46523 13.079 4.72304 17.1918 4.58299C17.1918 4.58299 17.3972 4.56054 17.3972 4.76255V6.04371C17.3972 6.04371 17.8204 10.9969 13.4744 11.3237C13.4744 11.3237 13.0117 11.4188 13.0117 10.8775Z" fill="#452C0E"></path>
<path d="M13.0291 11.6873V15.8522C13.0291 16.0345 13.1483 15.9968 13.1483 15.9968C15.4876 15.9348 17.3714 14.0611 17.4638 11.725C17.4719 11.5311 17.28 11.5544 17.28 11.5544H13.1546C13.1546 11.5544 13.03 11.5455 13.03 11.6873H13.0291Z" fill="#452C0E"></path>
<path d="M13.0291 4.31178V0.147776C13.0291 -0.0344775 13.1483 0.00323016 13.1483 0.00323016C15.4876 0.0651785 17.3714 1.93889 17.4638 4.27497C17.4719 4.4689 17.28 4.44556 17.28 4.44556H13.1546C13.1546 4.44556 13.03 4.45453 13.03 4.31268L13.0291 4.31178Z" fill="#452C0E"></path>
<path d="M4.45308 10.8775V9.46523C4.45308 9.46523 4.38583 4.72304 0.272971 4.58299C0.272971 4.58299 0.0676424 4.56054 0.0676424 4.76255V6.04371C0.0676424 6.04371 -0.355569 10.9969 3.99041 11.3237C3.99041 11.3237 4.45308 11.4188 4.45308 10.8775Z" fill="#452C0E"></path>
<path d="M4.435 11.6873V15.8522C4.435 16.0345 4.31574 15.9968 4.31574 15.9968C1.97732 15.9348 0.0926008 14.0611 0.000247581 11.725C-0.00782212 11.5311 0.184057 11.5544 0.184057 11.5544H4.30947C4.30947 11.5544 4.4341 11.5455 4.4341 11.6873H4.435Z" fill="#452C0E"></path>
<path d="M12.7864 11.725C12.7936 11.5311 12.6134 11.5544 12.6134 11.5544H8.73814C8.73814 11.5544 8.73276 11.5544 8.72649 11.5544C8.72021 11.5544 8.71483 11.5544 8.71483 11.5544H4.83958C4.83958 11.5544 4.65936 11.5311 4.66653 11.725C4.75261 14.0476 6.50373 15.9133 8.68434 15.995C8.70228 16.0013 8.71842 16.0004 8.72738 15.9986C8.73635 16.0004 8.75249 16.0013 8.77042 15.995C10.951 15.9133 12.7022 14.0476 12.7882 11.725H12.7864Z" fill="#452C0E"></path>
<path d="M4.43518 4.31178V0.147776C4.43518 -0.0344775 4.31593 0.00323016 4.31593 0.00323016C1.97751 0.0642807 0.0927839 1.93889 0.000430687 4.27407C-0.00763901 4.468 0.184241 4.44466 0.184241 4.44466H4.30965C4.30965 4.44466 4.43428 4.45363 4.43428 4.31178H4.43518Z" fill="#452C0E"></path>
<path d="M4.67303 4.31178V0.147776C4.67303 -0.0344775 4.79229 0.00323016 4.79229 0.00323016C7.1316 0.0651785 9.01543 1.93889 9.10778 4.27497C9.11585 4.4689 8.92397 4.44556 8.92397 4.44556H4.79856C4.79856 4.44556 4.67393 4.45453 4.67393 4.31268L4.67303 4.31178Z" fill="#452C0E"></path>
<path d="M12.7943 4.31178V0.147776C12.7943 -0.0344775 12.6751 0.00323016 12.6751 0.00323016C10.3357 0.0651785 8.45191 1.93889 8.35956 4.27497C8.35149 4.4689 8.54337 4.44556 8.54337 4.44556H12.6688C12.6688 4.44556 12.7934 4.45453 12.7934 4.31268L12.7943 4.31178Z" fill="#452C0E"></path>
<path d="M22.2656 8.08652C22.2656 3.17362 25.83 0 30.395 0C32.3075 0 33.5472 0.36931 34.3072 0.825968C34.7639 1.08648 34.8942 1.43433 34.9156 1.91245L35.1761 6.12963C34.1755 4.56504 32.6982 3.73908 30.7413 3.73908C28.0887 3.73908 26.3065 5.60861 26.3065 8.04361C26.3065 10.4786 27.9585 12.2608 30.7413 12.2608C33.1319 12.2608 34.7624 10.9996 35.8489 9.08718L35.6098 13.6078C35.5883 14.1288 35.4795 14.3679 35.1102 14.6728C34.1326 15.4329 32.4806 15.9983 30.5237 15.9983C25.5679 15.9983 22.264 12.955 22.264 8.08652H22.2656Z" fill="#452C0E"></path>
<path d="M37.024 15.6077C37.1758 13.1298 37.2416 10.3255 37.2416 7.99931C37.2416 5.67311 37.1758 2.8688 37.024 0.3909H41.1968C41.0451 2.8688 40.9792 5.67311 40.9792 7.99931C40.9792 10.3255 41.0451 13.1283 41.1968 15.6077H37.024Z" fill="#452C0E"></path>
<path d="M46.8054 15.6077C46.9571 12.9551 47.023 10.4772 47.023 6.91285V4.13H42.0887V0.392456H55.7394V4.13153H50.805V6.91439C50.805 10.4788 50.8709 12.9567 51.0226 15.6093H46.8054V15.6077Z" fill="#452C0E"></path>
<path d="M62.0208 15.6077C62.1939 13.6508 62.2384 11.5208 62.2384 9.73858C61.5641 8.3916 60.5865 6.89137 59.6731 5.32678C58.7169 3.6963 57.5645 2.02291 56.4995 0.392426H61.1519C61.9779 2.26196 63.0644 4.39201 64.1079 6.13129C65.1515 4.39201 66.238 2.26196 67.0639 0.392426H71.7148C70.6498 2.02291 69.4974 3.71775 68.5412 5.34823C67.6279 6.91282 66.6502 8.41305 65.9759 9.73858C65.9759 11.5208 66.0188 13.6508 66.1935 15.6077H62.0208Z" fill="#452C0E"></path>
<path d="M76.605 14.6943C76.1269 14.4123 75.9966 14.0859 75.9522 13.6078L75.6043 8.99986C76.9084 11.1728 79.561 12.5642 81.8642 12.5642C83.4288 12.5642 84.0816 12.0861 84.0816 11.2602C84.0816 10.5215 83.6035 9.91317 81.8642 9.52088L80.082 9.13011C77.4524 8.5432 75.6917 6.91272 75.6917 4.52216C75.6917 1.17538 78.6921 0.0015564 81.4305 0.0015564C83.8211 0.0015564 85.2554 0.392321 86.299 1.00069C86.7771 1.28265 86.9288 1.56615 86.9503 1.99982L87.2552 6.25991C86.3419 4.69532 84.1689 3.3468 81.4734 3.3468C80.1265 3.3468 79.6468 3.86782 79.6468 4.43328C79.6468 5.04165 80.0376 5.5642 81.6681 5.95496L83.1238 6.30282C86.4706 7.10733 88.0367 8.69338 88.0367 11.1284C88.0367 14.302 85.6891 15.9968 82.1676 15.9968C79.7326 15.9968 77.9949 15.5187 76.6034 14.6928L76.605 14.6943Z" fill="#452C0E"></path>
<path d="M88.7534 15.6077C88.9265 13.1298 88.971 10.3255 88.971 7.99931C88.971 5.67311 88.9281 2.8688 88.7534 0.3909H95.6661C98.5347 0.3909 100.927 1.82523 100.927 5.12911C100.927 8.08512 98.7094 9.86731 95.6661 9.86731H92.7529C92.7529 12.215 92.8403 13.9757 92.9261 15.6062H88.7534V15.6077ZM95.4484 6.34737C96.3618 6.34737 96.9701 5.95661 96.9701 5.13064C96.9701 4.30467 96.3618 3.91391 95.4484 3.91391H92.8403C92.7529 5.00038 92.7529 5.60875 92.7529 6.3489H95.4484V6.34737Z" fill="#452C0E"></path>
<path d="M101.86 15.6077C102.012 13.1298 102.078 10.3255 102.078 7.99928C102.078 5.67308 102.012 2.86877 101.86 0.390869H109.424C112.423 0.390869 114.423 2.08571 114.423 5.04326C114.423 7.39091 113.119 8.99994 111.01 9.54241C111.727 11.933 113.292 13.9113 115.074 15.6077H110.292C108.945 14.0431 107.987 12.4341 107.248 9.99907H105.857C105.857 11.9115 105.878 13.8899 106.03 15.6077H101.857H101.86ZM108.946 6.47759C109.902 6.47759 110.468 6.04239 110.468 5.17352C110.468 4.39046 109.859 3.91234 108.903 3.91234H105.947C105.904 4.73831 105.86 5.52137 105.86 6.47759H108.946Z" fill="#452C0E"></path>
<path d="M114.879 8.0007C114.879 3.0878 118.249 0.00152588 122.966 0.00152588C127.683 0.00152588 131.052 3.0878 131.052 8.0007C131.052 12.9136 127.683 15.9999 122.966 15.9999C118.249 15.9999 114.879 12.9136 114.879 8.0007ZM126.878 8.0007C126.878 5.71894 125.465 3.78351 122.966 3.78351C120.467 3.78351 119.054 5.71741 119.054 8.0007C119.054 10.284 120.467 12.2179 122.966 12.2179C125.465 12.2179 126.878 10.284 126.878 8.0007Z" fill="#452C0E"></path>
<path d="M144.702 0.392426C144.572 2.93622 144.529 4.4579 144.529 8.00083V9.47807C144.529 13.5206 142.486 15.9985 138.312 15.9985C134.138 15.9985 132.095 13.5206 132.095 9.47807V8.00083C132.095 4.4579 132.052 2.93622 131.922 0.392426H136.094C135.921 3.4787 135.877 6.10984 135.877 7.91349V9.65277C135.877 11.3047 136.66 12.4356 138.312 12.4356C139.964 12.4356 140.747 11.3047 140.747 9.65277V7.91349C140.747 6.10984 140.704 3.4787 140.529 0.392426H144.702Z" fill="#452C0E"></path>
<path d="M150.309 15.6077C150.46 12.9551 150.526 10.4772 150.526 6.91282V4.12997H145.592V0.392426H159.243V4.1315H154.308V6.91436C154.308 10.4787 154.374 12.9566 154.526 15.6092H150.309V15.6077Z" fill="#452C0E"></path>
<path d="M161.002 14.6943C160.524 14.4123 160.394 14.0859 160.35 13.6078L160.002 8.99986C161.306 11.1728 163.958 12.5642 166.262 12.5642C167.826 12.5642 168.479 12.0861 168.479 11.2602C168.479 10.5215 168.001 9.91317 166.262 9.52088L164.479 9.13011C161.85 8.5432 160.089 6.91272 160.089 4.52216C160.089 1.17538 163.089 0.0015564 165.828 0.0015564C168.218 0.0015564 169.653 0.392321 170.696 1.00069C171.174 1.28265 171.326 1.56615 171.348 1.99982L171.653 6.25991C170.739 4.69532 168.566 3.3468 165.871 3.3468C164.524 3.3468 164.044 3.86782 164.044 4.43328C164.044 5.04165 164.435 5.5642 166.065 5.95496L167.521 6.30282C170.868 7.10733 172.434 8.69338 172.434 11.1284C172.434 14.302 170.086 15.9968 166.565 15.9968C164.13 15.9968 162.392 15.5187 161.001 14.6928L161.002 14.6943Z" fill="#452C0E"></path>
</svg>
